<svg xmlns="http://www.w3.org/2000/svg" viewBox="0 0 24 24">
  <path fill="#000" d="M5 3h9.8L20 8.2V19a2 2 0 0 1-2 2H5a2 2 0 0 1-2-2V5a2 2 0 0 1 2-2Zm1.4 2.4v13.2h11.2v-8.8h-4.4V5.4H6.4Zm8.2.5v2.5h2.5l-2.5-2.5ZM9.2 11.1a1 1 0 0 1 1 1v1.2a2.2 2.2 0 0 1-1 1.9 2.2 2.2 0 0 1 1 1.9v1.2a1 1 0 1 1-2 0v-1.2c0-.5-.2-.8-.7-.8a.9.9 0 1 1 0-1.8c.5 0 .7-.3.7-.8v-1.2a1 1 0 0 1 1-1Zm5.6 0a1 1 0 0 1 1 1v1.2c0 .5.2.8.7.8a.9.9 0 1 1 0 1.8c-.5 0-.7.3-.7.8v1.2a1 1 0 1 1-2 0v-1.2a2.2 2.2 0 0 1 1-1.9 2.2 2.2 0 0 1-1-1.9v-1.2a1 1 0 0 1 1-1Z"/>
</svg>
